<?xml version="1.0" ?>
<!-- Uploaded to: SVG Repo, www.svgrepo.com, Generator: SVG Repo Mixer Tools -->
<svg width="800px" height="800px" viewBox="0 0 512 512" xmlns="http://www.w3.org/2000/svg">
<defs>
<style>.e{fill:#f4c762;}.f{fill:#eab84b;}.g{fill:#f4f4f4;}.h{fill:#f2c34e;}.i{fill:#fcd17a;}.j{fill:#8c8c8c;}.k{fill:#cecece;}.l{fill:#bebebe;}.m{fill:#dfdfdf;}.n{fill:#41a08e;}.o{fill:#365650;}.p{fill:#54aa9a;}.q{fill:#75bbad;}</style>
</defs>
<g id="a"/>
<g id="b"/>
<g id="c">
<g>
<path class="j" d="M83.39142,208c3.51093,22.3988,10.4502,44.13281,20.59497,64.4223h48c10.14349-20.28693,17.06512-42.0213,20.54205-64.4223H83.39142Z"/>
<ellipse class="p" cx="128" cy="200" rx="64" ry="32"/>
<path class="n" d="M168,200l-16-48h-48l-16,48,.00004,.00002c25.67763,10.27105,54.32229,10.27105,79.99992,0l.00004-.00002Z"/>
<rect class="l" height="48" width="128" x="192" y="448"/>
<rect class="g" height="96" transform="translate(197.91393 305.75163) rotate(-112.4499)" width="96" x="153.20203" y="38.69228"/>
<polygon class="l" points="104.4383 79.07965 100.32465 72.12365 225.74072 20.30322 228.79541 27.69678 104.4383 79.07965"/>
<path class="q" d="M227.08008,76c-2.85596-6.9126-8.2334-12.29883-15.14062-15.16699-6.90723-2.86914-14.51855-2.87549-21.42969-.01855-6.9126,2.85596-12.29883,8.23291-15.16699,15.14014s-2.875,14.51807-.01855,21.43018c4.45557,10.78369,14.91211,17.30762,25.91455,17.30762,3.55566,0,7.17041-.68164,10.65576-2.12207h.00049c14.26855-5.896,21.08057-22.30176,15.18506-36.57031Zm-33.51514-7.79199c2.46338-1.01807,5.0498-1.52686,7.6377-1.52686,2.59814,0,5.19727,.51367,7.66895,1.54004,3.68268,1.52917,6.75427,4.06213,8.92468,7.30054l-16.10931,6.65631-14.51892-9.74152c1.81488-1.78625,3.97223-3.22681,6.39691-4.22852Zm-12.00208,22.28522c-.74481-3.80658-.3623-7.74725,1.14752-11.41357l10.09039,6.77008-11.23792,4.64349Zm3.06183,7.39056l11.23114-4.64062-2.36322,11.89014c-3.53296-1.47681-6.64655-3.95746-8.86792-7.24951Zm24.21515,7.29297c-2.45312,1.01318-4.9939,1.48846-7.49792,1.50256l3.40002-17.10785,16.10242-6.65344c1.75726,9.13251-3.08246,18.57159-12.00452,22.25873Z"/>
<rect class="n" height="96.00002" transform="translate(62.52953 280.46112) rotate(-60.45601)" width="95.99996" x="223.93435" y="38.57265"/>
<path class="g" d="M285.74072,62.21338c-6.50635-3.6875-14.06006-4.62109-21.26807-2.62842-7.20898,1.99316-13.20996,6.67432-16.89795,13.18115-7.61279,13.43213-2.87842,30.55322,10.55322,38.16602,4.34912,2.46484,9.08447,3.63525,13.75928,3.63525,9.7627,0,19.25879-5.10547,24.40674-14.18848,7.61279-13.43164,2.87891-30.55273-10.55322-38.16553Zm5.21509,30.54236l-10.54675-5.97766,10.81104-5.45306c1.00378,3.68799,.9624,7.66077-.26428,11.43073Zm-18.98804-26.17957c3.33936,0,6.72168,.83643,9.82812,2.59717h.00049c2.31958,1.31464,4.26685,3.03259,5.82324,5.00806l-15.57507,7.85583-15.18542-8.60687c3.85278-4.42194,9.41638-6.85419,15.10864-6.85419Zm-19.05457,13.81323l15.18591,8.60712,1.26135,17.3985c-2.49438-.32043-4.96863-1.1084-7.28821-2.42285-8.40234-4.76227-12.03815-14.73413-9.15906-23.58276Zm24.42639,25.42487l-.87573-12.07672,10.54712,5.97791c-2.60437,2.98895-5.99146,5.06531-9.67139,6.09882Z"/>
<rect class="l" height="138.96548" transform="translate(111.11528 301.51371) rotate(-60.45613)" width="7.99993" x="310.29227" y="-14.076"/>
<rect class="j" height="32" width="120" x="72" y="464"/>
<path class="m" d="M473.30505,178.49658l-57.30505-74.49658v-16c0-5.03613-2.37109-9.77832-6.40002-12.79999l-14.55774-10.91833c-6.34424-4.75824-15.2168-4.15118-20.854,1.42688l-7.79077,7.70923c-4.02747,3.98529-5.64685,9.80341-4.25757,15.29639l3.76196,14.87396c1.34814,5.32983,5.33496,9.59381,10.56372,11.2923,6.89575,2.23999,15.53442,5.11957,15.53442,5.11957l51.48779,70.79572c7.82275,10.75623,9.78748,24.6972,5.24231,37.19653l-20.90027,57.47565c-2.29932,6.323-8.30859,10.5321-15.03662,10.5321h-4.79321v-24.00006c10.53296-15.79932,17.3938-33.7569,20.07922-52.55444l1.35779-9.50439c1.64111-11.48749-1.34851-23.15643-8.31104-32.4397v-.00006c-8.26489-11.01984-21.23547-17.50525-35.01025-17.50488-1.60681,0-3.22632,.00006-4.82959,.00006-13.39844-.00006-26.01465,6.30811-34.05371,17.02692l-.29688,.39587c-7.02466,9.36621-10.01367,21.0343-8.37256,32.52179l1.35779,9.50439c2.68542,18.79755,9.54626,36.75513,20.07922,52.55444v24.00006h-40v200h120v-120l44.22925-132.68768c7.35925-22.07794,3.26514-46.36969-10.92419-64.81573Z"/>
<path class="h" d="M474.35303,272.94116l-36.63867-14.65546-.00012,.00006-9.8844,27.18213c-2.29932,6.323-8.30859,10.5321-15.03662,10.5321h-92.79321v168h120v-88l34.35303-103.05884Z"/>
<path class="j" d="M347.23242,177.02344l-.29688,.39587c-7.02466,9.36621-10.01367,21.0343-8.37256,32.52179l1.35779,9.50439c2.68542,18.79755,9.54626,36.75513,20.07922,52.55444l48,.00006v-.00006c10.53296-15.79932,17.3938-33.7569,20.07922-52.55444l1.35779-9.50439c1.64111-11.48749-1.34851-23.15643-8.31104-32.4397v-.00006c-8.26489-11.01984-21.23547-17.50525-35.01025-17.50488-1.60681,0-3.22632,.00006-4.82959,.00006-13.39844-.00006-26.01465,6.30811-34.05371,17.02692Z"/>
<rect class="j" height="32" width="120" x="320" y="464"/>
<path class="m" d="M152,296v-23.6344h-48v23.6344h-.43878c-9.96368,0-19.51929-3.95807-26.5647-11.00348-8.04785-8.04785-11.21545-19.76459-8.31897-30.77124L104,120l11.31372-11.31372c3.00055-3.00061,4.68628-7.07025,4.68628-11.31372v-15.48401c0-6.06036-3.42401-11.60059-8.8446-14.31085l-11.21191-5.60596c-6.9162-3.45813-15.31586-1.47522-19.95544,4.71082l-10.95807,14.61084c-3.15021,4.20026-4.03925,9.67877-2.37897,14.65961l5.349,16.047L28.73114,241.80658c-8.00891,24.02679-4.16766,50.42694,10.35614,71.17517l32.91272,47.01825v104h120v-168h-40Z"/>
<path class="i" d="M76.99652,284.99652c-5.17566-5.17566-8.31921-11.87067-9.14319-18.91644l-.01172-.00092-40.82312,20.41156c2.34119,9.37506,6.38208,18.36719,12.06879,26.49103l32.91272,47.01825v104h120v-168H103.56122c-9.96368,0-19.51929-3.95807-26.5647-11.00348Z"/>
<path class="k" d="M280,296v-28.27722h-48v28.27722H88v4.54657c0,15.79431,11.52356,29.22626,27.13416,31.62793l76.86584,11.81915v104.00635h128v-104l73.47412-11.30371c17.56189-2.70184,30.52588-17.81281,30.52588-35.58136v-1.11493h-144Z"/>
<path class="p" d="M336.42114,341.47369l7.57886-45.47369h-64c-14.5332,9.68878-33.46674,9.68878-48,0h-64l7.57806,45.46857,16.42194,2.52509v104.00635h128v-104l16.42114-2.52631Z"/>
<path class="m" d="M304.72412,329.62299l-1.94531-2.91785c-4.0022-6.00342-11.52747-8.58539-18.37244-6.30377l-8.82312,2.9411c-2.35645,.78546-4.49768,2.10883-6.25403,3.86517l-13.32922,13.32922-41.81952,6.86731-50.69855-7.79156-3.48193,40.92426,32,3.46313,80-19.46313h9.37256c4.24341,0,8.31323-1.68573,11.31372-4.68628l10.0387-10.0387c5.39294-5.39307,6.22974-13.84296,1.99915-20.1889Z"/>
<polygon class="i" points="160.55505 339.16289 157.14701 380.2281 192 384 199.96234 345.21796 160.55505 339.16289"/>
<path class="f" d="M307.44861,197.17285l-3.44861-5.17285v-.00006c4.0636-16.25439-8.23022-31.99994-24.98486-31.99994h-7.01514v-.00006c-8.83655-8.83655-23.16345-8.83655-32,0v.00006h-8.58545c-16.25183,0-28.44092,14.86823-25.25366,30.8045l1.83911,9.1955c-8.83655,8.83655-8.83655,23.16339,0,31.99994v.00006l-1.01636,3.04907c-4.0072,12.02155,1.43506,25.16028,12.7691,30.82727l12.24725,6.12366c14.53326,9.68878,33.4668,9.68878,48,0l6.20081-3.1004c13.6991-6.84961,18.29504-24.15582,9.79919-36.8996l5.17285-3.44861c10.39795-6.93195,13.20776-20.98059,6.27576-31.37854Z"/>
<rect class="e" height="32.18682" transform="translate(-222.98508 516.11978) rotate(-83.82375)" width="7.99953" x="172.00024" y="366.17514"/>
<path class="o" d="M476.47559,176.05762l-56.47559-73.41797v-14.63965c0-6.26172-2.99072-12.24316-8-16l-14.55762-10.91846c-7.87012-5.90137-19.07666-5.13525-26.06738,1.78369l-7.79102,7.70947c-1.72754,1.70947-3.09229,3.70422-4.08081,5.85901L255.81592,17.66553c-1.92236-1.08984-4.36328-.41455-5.45215,1.50781l-12.00824,21.1864-7.39069-17.88708c-.40527-.98047-1.18311-1.75977-2.1626-2.16699-.97949-.40625-2.08105-.40771-3.06152-.00244l-109.95667,45.4328c-.88922-.64532-1.83246-1.23236-2.83972-1.73602l-11.21191-5.60596c-8.65186-4.32568-19.1416-1.84912-24.94434,5.88867l-10.9585,14.61084c-3.93652,5.24951-5.04834,12.09961-2.97363,18.32471l4.92773,14.78174L24.93604,240.54199c-8.37012,25.11084-4.30469,53.04883,10.87451,74.73389l32.18945,45.98486v134.73926h8v-28h112v28h8v-44h120v44h8v-28h112v28h8v-119.35107l44.02393-132.07129c7.7915-23.375,3.47461-48.98975-11.54834-68.52002Zm-52.40479,108.04346c-1.71777,4.72461-6.25,7.89893-11.27783,7.89893h-.79297v-18.79932c10.42285-15.96094,17.34424-34.32471,20.03906-53.18945l1.35791-9.50439c1.80371-12.62695-1.41748-25.20117-9.0708-35.40527-8.97217-11.96338-23.25684-19.10547-38.21045-19.10498h-4.82959c-14.57959,0-28.50586,6.96338-37.25439,18.62744l-.29639,.39551c-7.69287,10.25684-10.93604,22.85986-9.13232,35.4873l1.35791,9.50391c2.69482,18.86523,9.6167,37.229,20.03906,53.18994v18.79932h-72v-17.52783l3.98975-1.99512c7.55518-3.77783,13.13184-10.62646,15.2998-18.79102,1.82275-6.86279,1.09277-14.11328-1.96973-20.42529l2.07178-1.38135c5.91797-3.94482,9.94531-9.9585,11.33984-16.93311,1.39502-6.97412-.00928-14.07422-3.95459-19.99219l-2.50781-3.76172c1.57227-8.39355-.49902-16.95752-5.80176-23.74951-5.67822-7.27197-14.22607-11.44287-23.45215-11.44287h-5.43506c-10.02148-8.82129-25.13867-8.82129-35.16016,0h-7.00537c-8.94922,0-17.33643,3.96924-23.00977,10.89014-5.67383,6.9209-7.92139,15.92334-6.16602,24.69873l1.44043,7.20264c-8.31982,9.81055-8.39111,24.27197-.21338,34.16211l-.27734,.83105c-4.60645,13.82031,1.74561,29.15479,14.77539,35.66943l10.03613,5.01807v17.52783h-72v-18.69434c7.24908-14.65527,12.86469-30.11987,16.74561-46.00043,14.31812-6.55249,23.25439-16.27161,23.25439-27.30524,0-13.30927-12.78748-25.00256-34.23871-31.36603l-5.96637-17.89911c-.54443-1.6333-2.07324-2.73486-3.79492-2.73486h-40.1665v8h37.28369l13.87354,41.62109c-21.35205,7.64746-44.80566,8.0918-66.46436,1.19043l-2.42871,7.62256c11.01074,3.50781,22.4502,5.25342,33.88086,5.25342,14.12891,0,28.24365-2.66797,41.50684-7.97363,1.9668-.78662,2.979-2.96973,2.30957-4.979l-6.87415-20.6225c14.38593,5.35999,23.07922,13.47278,23.07922,21.88763,0,13.52197-24.10938,28-60,28-17.66626,0-34.08112-3.65765-45.6286-10.09357l25.22186-95.84247,10.54883-10.54883c3.77734-3.77783,5.85791-8.80029,5.85791-14.14258v-15.48389c0-3.53198-.91895-6.89294-2.57275-9.82861l14.94684-6.1759,35.13275,85.02795c.40527,.98047,1.18311,1.75977,2.1626,2.16699,.49121,.20361,1.0127,.30566,1.53418,.30566,.51904,0,1.03857-.10107,1.52734-.30322l61.93713-25.5921,49.38464,27.99054c.62305,.35303,1.30029,.52051,1.96826,.52051,1.39355,0,2.74756-.729,3.48389-2.02832l45.3645-80.03778,18.79126,10.65051c-.02063,1.70477,.17456,3.42255,.60156,5.11041l3.76172,14.87402c1.6958,6.70361,6.63232,11.98047,13.20557,14.11523,5.31836,1.72803,11.6748,3.83643,14.29004,4.70557l50.7334,69.7583c7.05127,9.69531,8.81494,22.20996,4.71777,33.47656l-20.8999,57.47607Zm-4.19678,15.89893c-1.28467,14.60791-12.24609,26.47168-27.0083,28.74268l-51.59033,7.93695,6.11328-36.67963h72.48535Zm-14.05103-32h-43.646c-9.49146-14.79517-15.81201-31.72791-18.29614-49.12061l-1.35791-9.50439c-1.50195-10.51172,1.20166-21.00781,7.61328-29.55615l.29639-.39551c7.24463-9.65967,18.77881-15.42676,30.85352-15.42676h4.82959c12.44922-.00049,24.34082,5.94531,31.81006,15.90479,6.37158,8.49512,9.05322,18.9624,7.55127,29.47363l-1.35791,9.50488c-2.48413,17.39221-8.80469,34.32495-18.29614,49.12012Zm-41.823,8h40v16h-40v-16Zm-88,17.76599c-12.36182,7.33374-27.63824,7.33374-40,0v-14.93311c6.34167,2.97211,13.17084,4.45911,20,4.45911s13.65833-1.487,20-4.45911v14.93311Zm2.21094-25.34363c-.14966,.07483-.29053,.1615-.42749,.25281l-.0022-.0033c-13.23145,8.82129-30.33105,8.82129-43.5625,0l-.0022,.0033c-.13696-.09131-.27789-.17798-.42749-.25281l-12.24756-6.12354c-9.4917-4.74561-14.11914-15.91699-10.76367-25.98438l1.01709-3.04932c.479-1.4375,.10498-3.02197-.96631-4.09375-7.26318-7.2627-7.26318-19.08008,0-26.34277,.94531-.9458,1.35596-2.30176,1.09375-3.61279l-1.83887-9.1958c-1.2832-6.41602,.35986-12.99805,4.50781-18.05811,4.14844-5.06006,10.28027-7.96191,16.82324-7.96191h8.58545c1.06104,0,2.07812-.42139,2.82861-1.17139,7.2627-7.2627,19.08008-7.2627,26.34277,0,.75049,.75,1.76758,1.17139,2.82861,1.17139h7.01514c6.74561,0,12.99512,3.04932,17.14648,8.36621s5.59375,12.11963,3.95801,18.66357c-.27344,1.09326-.07275,2.25146,.55225,3.18896l3.44873,5.17285c5.69727,8.54639,3.37939,20.13428-5.1665,25.83154l-5.17285,3.44873c-1.83838,1.22559-2.33496,3.70898-1.10938,5.54688,3.41309,5.11963,4.46533,11.4668,2.88574,17.41406-1.5791,5.94775-5.6416,10.93701-11.146,13.68896l-6.20068,3.10059Zm-197.93091-42.56866c.95642,.49261,1.93439,.97131,2.94073,1.43091,3.89966,15.88757,9.52655,31.35895,16.77924,46.02106v18.50409c-7.61987-.79852-14.68219-4.14874-20.1748-9.64178-7.01465-7.01416-9.80371-17.33154-7.2793-26.9248l7.73413-29.38947Zm27.71997,66.1463v-16h40v16h-40Zm41.66412-24h-43.32843c-5.77057-11.93561-10.44885-24.4021-13.94293-37.19257,10.5401,3.36359,22.80884,5.19257,35.60724,5.19257,13.13348,0,25.28589-1.87665,35.57623-5.16113-3.47968,12.77942-8.14734,25.23541-13.91211,37.16113Zm-57.66412,32h72.61127l6.11249,36.67499-54.98157-8.45428c-13.75684-2.11621-23.74219-13.75488-23.74219-27.67432v-.54639ZM255.35107,26.59766l76.55859,43.39209-43.39209,76.55811-76.55859-43.39209L255.35107,26.59766Zm-53.66412,55.58038l-14.49963-9.72858c1.81769-1.79254,3.98022-3.23718,6.41083-4.24146,8.85541-3.65839,18.98309-.43524,24.20398,7.31134l-16.11517,6.65869Zm-18.9494-3.08014l10.06323,6.75183-11.20618,4.63037c-.74023-3.79626-.35901-7.72516,1.14294-11.3822Zm13.11829,14.14526l-2.36035,11.87555c-3.52393-1.47998-6.62872-3.9585-8.84393-7.24603l11.20428-4.62952Zm8.88611-3.67169l7.4704-3.08673-9.18549,16.20618c-.52295,.92285-.6582,2.01562-.37549,3.03809,.08661,.31329,.2215,.60486,.37793,.88373-.56372,.05035-1.12634,.06573-1.68768,.06793l3.40033-17.10919Zm28.60736-40.37915l-10.8996,19.23041c-7.70392-8.92352-20.56036-12.29517-31.90625-7.60828-6.9126,2.85596-12.29883,8.23291-15.16699,15.14014s-2.875,14.51807-.01855,21.43018c4.45557,10.78369,14.91211,17.30762,25.91455,17.30762,3.55615,0,7.17041-.68213,10.65625-2.12207,.07861-.03247,.15564-.0705,.23407-.10376l17.67273,10.01672-52.46246,21.67688-33.60547-81.33057,58.86493-24.32263,22.46619-9.28271,8.25061,19.96808ZM32.52588,243.07178L75.79492,113.26514c.27344-.82129,.27344-1.70898,0-2.53027l-5.34912-16.04639c-1.24512-3.73535-.57812-7.84521,1.78418-10.99512l10.9585-14.61084c3.48193-4.64258,9.77783-6.12744,14.96582-3.5332l11.21191,5.60596c4.0918,2.0459,6.63379,6.15869,6.63379,10.7334v15.48389c0,3.20557-1.24854,6.21875-3.51514,8.48535l-11.31348,11.31348c-.50049,.50098-.85938,1.12598-1.03955,1.81055l-35.32227,134.2251c-.9104,3.45923-1.26453,6.99017-1.13104,10.48157l-33.80414,16.90222c-2.23224-12.39673-1.41296-25.32593,2.65149-37.51904Zm43.47412,216.92822v-100c0-.8208-.25244-1.62158-.72314-2.29395l-32.9126-47.01807c-4.75958-6.79956-8.30896-14.27942-10.60327-22.09613l33.1994-16.59985c1.63641,5.89642,4.7572,11.38281,9.20758,15.83319,2.9704,2.97021,6.31213,5.43335,9.91895,7.35071-.05579,.26617-.08691,.54132-.08691,.8241v4.54639c0,17.89648,12.83789,32.86035,30.52637,35.58154l80.67181,12.4046-6.38501,31.09912-28.383-3.07111-.86035,7.95312,28.43018,3.0766v72.40973H76Zm137.57275-108.64209c.41748,.06396,.84131,.06201,1.25586-.00635l41.81934-6.86719c.82617-.13574,1.58887-.52686,2.18066-1.11865l13.3291-13.32959c1.31006-1.31055,2.93213-2.31299,4.69092-2.89893l8.82275-2.94092c5.11914-1.70752,10.78564,.23779,13.7793,4.72754l1.94531,2.91797c3.16211,4.74316,2.53125,11.11084-1.49951,15.1416l-10.03809,10.03857c-2.26709,2.2666-5.28076,3.51514-8.48584,3.51514h-9.37256c-.31836,0-.63623,.03809-.9458,.11328l-73.86615,17.97058,5.92749-28.87103,10.45721,1.60797Zm-17.57275,92.64209v-56.85632l76.47949-18.60657h8.89307c5.3418,0,10.36426-2.08057,14.14258-5.85791l10.03857-10.03857c6.71777-6.71826,7.76855-17.33154,2.49854-25.23633l-1.94531-2.91797c-4.98926-7.4834-14.43262-10.72314-22.96582-7.87988l-8.82275,2.94092c-2.93018,.97705-5.63379,2.64795-7.81787,4.83154l-12.41895,12.41943-39.92139,6.55566-35.11224-5.39905-6.32581-37.95496h58.1087c7.71155,4.85681,16.43921,7.29199,25.16919,7.29199s17.45764-2.43518,25.16919-7.29199h58.10864l-6.32666,37.96027-13.55957,2.08612c-1.95117,.30029-3.3916,1.97949-3.3916,3.95361v100h-120Zm240.20508-69.26514c-.13574,.4082-.20508,.83545-.20508,1.26514v84h-112v-112.56836l70.08252-10.78174c19.65283-3.02344,33.91748-19.65039,33.91748-39.53516v-1.11475c0-.83984-.26123-1.61743-.70349-2.26099,1.85364-1.95044,3.33826-4.27911,4.29285-6.90405l8.47339-23.30194,29.30249,11.72119-33.16016,99.48065Zm44.229-132.6875l-8.53479,25.60449-29.10144-11.64081,9.69141-26.65167c5.00781-13.77051,2.85205-29.06641-5.7666-40.91602l-51.48779-70.7959c-.49023-.67432-1.1792-1.17871-1.97021-1.44238,0,0-8.65479-2.88477-15.56348-5.12891-3.94287-1.28076-6.90381-4.44678-7.92139-8.46875l-3.76172-14.87402c-1.0376-4.10059,.18604-8.49658,3.19287-11.47217l7.79102-7.70947c4.19434-4.15088,10.91846-4.61133,15.64062-1.06982l14.55762,10.91846c3.00537,2.25391,4.7998,5.84277,4.7998,9.59961v16c0,.88232,.2915,1.73975,.82959,2.43896l57.30518,74.49658c13.39844,17.41846,17.24854,40.26416,10.29932,61.11182Z"/>
<path class="o" d="M258.12793,110.93213c4.34912,2.46484,9.08447,3.63525,13.75928,3.63525,9.7627,0,19.25879-5.10547,24.40674-14.18848,7.61279-13.43164,2.87891-30.55273-10.55322-38.16553-6.50635-3.6875-14.06006-4.62109-21.26807-2.62842-7.20898,1.99316-13.20996,6.67432-16.89795,13.18115-7.61279,13.43213-2.87842,30.55322,10.55322,38.16602Zm-5.21472-30.54272l15.18591,8.60712,1.26135,17.3985c-2.49438-.32043-4.96863-1.1084-7.28821-2.42285-8.40234-4.76227-12.03815-14.73413-9.15906-23.58276Zm38.0426,12.36633l-10.54675-5.97766,10.81104-5.45306c1.00378,3.68799,.9624,7.66077-.26428,11.43073Zm-13.61621,13.05853l-.87573-12.07672,10.54712,5.97791c-2.60437,2.98895-5.99146,5.06531-9.67139,6.09882Zm-5.37183-39.2381c3.33936,0,6.72168,.83643,9.82812,2.59717h.00049c2.31958,1.31464,4.26685,3.03259,5.82324,5.00806l-15.57507,7.85583-15.18542-8.60687c3.85278-4.42194,9.41638-6.85419,15.10864-6.85419Z"/>
</g>
</g>
<g id="d"/>
</svg>