<?xml version="1.0" encoding="UTF-8" standalone="no"?>
<svg
   xmlns:dc="http://purl.org/dc/elements/1.1/"
   xmlns:cc="http://creativecommons.org/ns#"
   xmlns:rdf="http://www.w3.org/1999/02/22-rdf-syntax-ns#"
   xmlns:svg="http://www.w3.org/2000/svg"
   xmlns="http://www.w3.org/2000/svg"
   viewBox="0 0 332.64001 332.64001"
   height="332.64001"
   width="332.64001"
   xml:space="preserve"
   id="svg2"
   version="1.1"><metadata
     id="metadata8"><rdf:RDF><cc:Work
         rdf:about=""><dc:format>image/svg+xml</dc:format><dc:type
           rdf:resource="http://purl.org/dc/dcmitype/StillImage" /></cc:Work></rdf:RDF></metadata><defs
     id="defs6"><clipPath
       id="clipPath18"
       clipPathUnits="userSpaceOnUse"><path
         style="clip-rule:evenodd"
         id="path16"
         d="M 0,6.1035e-5 H 249.48 V 249.48006 H 0 Z" /></clipPath><clipPath
       id="clipPath28"
       clipPathUnits="userSpaceOnUse"><path
         style="clip-rule:evenodd"
         id="path26"
         d="M -4.5776e-5,249.48 H 249.48 V -1.5259e-5 L -3.0518e-5,0" /></clipPath><clipPath
       id="clipPath38"
       clipPathUnits="userSpaceOnUse"><path
         style="clip-rule:evenodd"
         id="path36"
         d="M -9.537e-6,249.48 H 249.48 V 3.0518e-5 L -3.4332e-5,0" /></clipPath><clipPath
       id="clipPath48"
       clipPathUnits="userSpaceOnUse"><path
         style="clip-rule:evenodd"
         id="path46"
         d="M -1.5259e-5,249.48 H 249.48 V -6.1035e-5 L -2.2888e-5,-3.0518e-5" /></clipPath><clipPath
       id="clipPath58"
       clipPathUnits="userSpaceOnUse"><path
         style="clip-rule:evenodd"
         id="path56"
         d="M -3.0518e-5,249.48 H 249.48 V -3.0518e-5 L 0,-1.5259e-5" /></clipPath><clipPath
       id="clipPath68"
       clipPathUnits="userSpaceOnUse"><path
         style="clip-rule:evenodd"
         id="path66"
         d="M -3.0518e-5,249.48 H 249.48 V 6.1035e-5 L -1.5259e-5,4.5776e-5" /></clipPath><clipPath
       id="clipPath78"
       clipPathUnits="userSpaceOnUse"><path
         style="clip-rule:evenodd"
         id="path76"
         d="M -1.1444e-5,249.48 H 249.48 V -4.5776e-5 L -1.3351e-5,-3.0518e-5" /></clipPath><clipPath
       id="clipPath88"
       clipPathUnits="userSpaceOnUse"><path
         style="clip-rule:evenodd"
         id="path86"
         d="M -3.0518e-5,249.48 H 249.48 V 6.1035e-5 L -3.0518e-5,4.5776e-5" /></clipPath><clipPath
       id="clipPath98"
       clipPathUnits="userSpaceOnUse"><path
         style="clip-rule:evenodd"
         id="path96"
         d="M -3.815e-6,249.48 H 249.48 V 3.0518e-5 L -3.8147e-5,1.5259e-5" /></clipPath></defs><g
     transform="matrix(1.3333333,0,0,-1.3333333,0,332.64)"
     id="g10"><g
       id="g12"><g
         clip-path="url(#clipPath18)"
         id="g14"><path
           id="path20"
           style="fill:#ffffff;fill-opacity:1;fill-rule:evenodd;stroke:none"
           d="M 0,1.5259e-5 H 249.48 V 249.48002 H 0 Z" /></g></g><g
       id="g22"><g
         clip-path="url(#clipPath28)"
         id="g24"><path
           id="path30"
           style="fill:#00baec;fill-opacity:1;fill-rule:evenodd;stroke:none"
           d="m 230.69,60.774 c -0.58,-1.178 -1.38,-2.379 -2.37,-3.362 -0.98,-0.983 -2.09,-1.761 -3.27,-2.333 -0.02,-0.009 -0.04,-0.028 -0.07,-0.037 -4.47,-2.076 -10.05,-1.322 -15.23,3.762 l -75.6,75.606 17.18,17.19 75.56,-75.552 c 5.15,-5.252 5.94,-10.792 3.8,-15.274 z" /></g></g><g
       id="g32"><g
         clip-path="url(#clipPath38)"
         id="g34"><path
           id="path40"
           style="fill:#00abd8;fill-opacity:1;fill-rule:evenodd;stroke:none"
           d="m 18.747,188.63 c 0.579,1.17 1.387,2.38 2.37,3.36 0.983,0.98 2.098,1.76 3.27,2.33 0.027,0.01 0.046,0.03 0.074,0.04 4.473,2.07 10.05,1.32 15.233,-3.77 L 115.58,114.7 98.392,97.517 22.562,173.35 c -5.165,5.25 -5.956,10.79 -3.815,15.28 z" /></g></g><g
       id="g42"><g
         clip-path="url(#clipPath48)"
         id="g44"><path
           id="path50"
           style="fill:#00dac7;fill-opacity:1;fill-rule:evenodd;stroke:none"
           d="m 60.794,18.727 c -1.178,0.579 -2.379,1.387 -3.362,2.37 -0.983,0.983 -1.761,2.098 -2.333,3.27 -0.009,0.028 -0.028,0.046 -0.037,0.074 -2.076,4.473 -1.322,10.05 3.762,15.226 L 134.43,115.27 151.62,98.087 76.067,22.536 C 70.816,17.377 65.276,16.586 60.794,18.727 Z" /></g></g><g
       id="g52"><g
         clip-path="url(#clipPath58)"
         id="g54"><path
           id="path60"
           style="fill:#00abd8;fill-opacity:1;fill-rule:evenodd;stroke:none"
           d="m 194.37,24.45 c -0.58,-1.178 -1.39,-2.379 -2.37,-3.362 -0.98,-0.983 -2.1,-1.761 -3.27,-2.333 -0.03,-0.009 -0.05,-0.028 -0.07,-0.037 -4.48,-2.076 -10.05,-1.322 -15.23,3.762 L 97.822,98.087 115.01,115.27 190.56,39.723 c 5.16,-5.251 5.95,-10.791 3.81,-15.273 z" /></g></g><g
       id="g62"><g
         clip-path="url(#clipPath68)"
         id="g64"><path
           id="path70"
           style="fill:#00dac7;fill-opacity:1;fill-rule:evenodd;stroke:none"
           d="m 224.97,194.35 c 1.18,-0.58 2.38,-1.39 3.36,-2.37 0.99,-0.98 1.76,-2.1 2.34,-3.27 0.01,-0.03 0.02,-0.05 0.03,-0.07 2.08,-4.48 1.33,-10.05 -3.76,-15.24 l -75.89,-75.883 -17.19,17.183 75.83,75.83 c 5.26,5.17 10.8,5.96 15.28,3.82 z" /></g></g><g
       id="g72"><g
         clip-path="url(#clipPath78)"
         id="g74"><path
           id="path80"
           style="fill:#0059cc;fill-opacity:1;fill-rule:evenodd;stroke:none"
           d="m 24.47,55.051 c -1.178,0.579 -2.379,1.387 -3.362,2.37 -0.983,0.984 -1.761,2.098 -2.333,3.27 -0.009,0.028 -0.028,0.046 -0.037,0.074 -2.076,4.473 -1.322,10.05 3.762,15.227 L 98.107,151.6 115.29,134.41 39.743,58.86 C 34.492,53.701 28.952,52.911 24.47,55.051 Z" /></g></g><g
       id="g82"><g
         clip-path="url(#clipPath88)"
         id="g84"><path
           id="path90"
           style="fill:#0059cc;fill-opacity:1;fill-rule:evenodd;stroke:none"
           d="m 188.65,230.67 c 1.17,-0.58 2.38,-1.38 3.36,-2.37 0.98,-0.98 1.76,-2.09 2.33,-3.27 0.01,-0.02 0.03,-0.04 0.04,-0.07 2.07,-4.47 1.32,-10.05 -3.77,-15.23 l -75.89,-75.89 -17.183,17.19 75.833,75.83 c 5.25,5.16 10.79,5.95 15.28,3.81 z" /></g></g><g
       id="g92"><g
         clip-path="url(#clipPath98)"
         id="g94"><path
           id="path100"
           style="fill:#00baec;fill-opacity:1;fill-rule:evenodd;stroke:none"
           d="m 55.071,224.95 c 0.579,1.18 1.387,2.38 2.37,3.36 0.983,0.99 2.098,1.76 3.269,2.34 0.028,0.01 0.047,0.02 0.075,0.03 4.473,2.08 10.049,1.33 15.232,-3.76 L 151.9,151.03 134.72,133.84 58.886,209.67 c -5.165,5.26 -5.956,10.8 -3.815,15.28 z" /></g></g></g></svg>